<svg id="visual" viewBox="0 0 960 300" width="960" height="300" xmlns="http://www.w3.org/2000/svg" xmlns:xlink="http://www.w3.org/1999/xlink" version="1.1"><rect x="0" y="0" width="960" height="300" fill="#0f0f10"></rect><path d="M0 221L22.8 214.5C45.7 208 91.3 195 137 192.5C182.7 190 228.3 198 274 198C319.7 198 365.3 190 411.2 190.8C457 191.7 503 201.3 548.8 204.8C594.7 208.3 640.3 205.7 686 206.3C731.7 207 777.3 211 823 211.8C868.7 212.7 914.3 210.3 937.2 209.2L960 208L960 301L937.2 301C914.3 301 868.7 301 823 301C777.3 301 731.7 301 686 301C640.3 301 594.7 301 548.8 301C503 301 457 301 411.2 301C365.3 301 319.7 301 274 301C228.3 301 182.7 301 137 301C91.3 301 45.7 301 22.8 301L0 301Z" fill="#fa7268"></path><path d="M0 208L22.8 209.7C45.7 211.3 91.3 214.7 137 213C182.7 211.3 228.3 204.7 274 208.2C319.7 211.7 365.3 225.3 411.2 230.5C457 235.7 503 232.3 548.8 231C594.7 229.7 640.3 230.3 686 229C731.7 227.7 777.3 224.3 823 225.7C868.7 227 914.3 233 937.2 236L960 239L960 301L937.2 301C914.3 301 868.7 301 823 301C777.3 301 731.7 301 686 301C640.3 301 594.7 301 548.8 301C503 301 457 301 411.2 301C365.3 301 319.7 301 274 301C228.3 301 182.7 301 137 301C91.3 301 45.7 301 22.8 301L0 301Z" fill="#ef5f67"></path><path d="M0 226L22.8 229.5C45.7 233 91.3 240 137 244.3C182.7 248.7 228.3 250.3 274 248.3C319.7 246.3 365.3 240.7 411.2 235.8C457 231 503 227 548.8 228.3C594.7 229.7 640.3 236.3 686 239.2C731.7 242 777.3 241 823 239.5C868.7 238 914.3 236 937.2 235L960 234L960 301L937.2 301C914.3 301 868.7 301 823 301C777.3 301 731.7 301 686 301C640.3 301 594.7 301 548.8 301C503 301 457 301 411.2 301C365.3 301 319.7 301 274 301C228.3 301 182.7 301 137 301C91.3 301 45.7 301 22.8 301L0 301Z" fill="#e34c67"></path><path d="M0 252L22.8 251.5C45.7 251 91.3 250 137 248.5C182.7 247 228.3 245 274 244.3C319.7 243.7 365.3 244.3 411.2 248.8C457 253.3 503 261.7 548.8 264.3C594.7 267 640.3 264 686 259.3C731.7 254.7 777.3 248.3 823 245.8C868.7 243.3 914.3 244.7 937.2 245.3L960 246L960 301L937.2 301C914.3 301 868.7 301 823 301C777.3 301 731.7 301 686 301C640.3 301 594.7 301 548.8 301C503 301 457 301 411.2 301C365.3 301 319.7 301 274 301C228.3 301 182.7 301 137 301C91.3 301 45.7 301 22.8 301L0 301Z" fill="#d53867"></path><path d="M0 267L22.8 266.7C45.7 266.3 91.3 265.7 137 266.3C182.7 267 228.3 269 274 271.5C319.7 274 365.3 277 411.2 275.8C457 274.7 503 269.3 548.8 267C594.7 264.7 640.3 265.3 686 265.7C731.7 266 777.3 266 823 268.5C868.7 271 914.3 276 937.2 278.5L960 281L960 301L937.2 301C914.3 301 868.7 301 823 301C777.3 301 731.7 301 686 301C640.3 301 594.7 301 548.8 301C503 301 457 301 411.2 301C365.3 301 319.7 301 274 301C228.3 301 182.7 301 137 301C91.3 301 45.7 301 22.8 301L0 301Z" fill="#c62368"></path></svg>